STARTFONT 2.1
FONT jis.jis5600.16
SIZE 16 72 72
FONTBOUNDINGBOX 16 16 0 -2
STARTPROPERTIES 4
FONT_DESCENT 2
FONT_ASCENT 14
DEFAULT_CHAR 6
COPYRIGHT "Copyright (c) 1992 AT&T - All rights reserved."
ENDPROPERTIES
CHARS 129
STARTCHAR ch-6
ENCODING 6
SWIDTH 1000 0
DWIDTH 16 0
BBX 16 16 0 -2
BITMAP
0088
07ff
f088
9000
93fe
9222
9222
93fe
9020
91fc
9020
f7ff
0050
00d8
018c
0707
ENDCHAR
STARTCHAR ch-9
ENCODING 9
SWIDTH 1000 0
DWIDTH 16 0
BBX 16 16 0 -2
BITMAP
0100
0100
ffff
0100
7ffe
0000
1ff8
1008
1ff8
0420
ffff
1000
7e7e
1242
2242
ce7e
ENDCHAR
STARTCHAR ch-20
ENCODING 20
SWIDTH 1000 0
DWIDTH 16 0
BBX 16 16 0 -2
BITMAP
0000
03ff
7a00
4a7c
4a44
4a44
4a7c
4a00
4aee
4aaa
7aaa
02aa
02ee
0200
03ff
0000
ENDCHAR
STARTCHAR ch-22
ENCODING 22
SWIDTH 1000 0
DWIDTH 16 0
BBX 16 16 0 -2
BITMAP
0040
07fe
f040
93fc
9040
9fff
9000
93fc
9204
93fc
9204
f3fc
0204
03fc
0108
0606
ENDCHAR
STARTCHAR ch-23
ENCODING 23
SWIDTH 1000 0
DWIDTH 16 0
BBX 16 16 0 -2
BITMAP
2104
1108
ffff
8001
9ff9
1008
1ff8
4000
7ff8
4001
7fff
2004
3ffc
2004
2004
3ffc
ENDCHAR
STARTCHAR ch-24
ENCODING 24
SWIDTH 1000 0
DWIDTH 16 0
BBX 16 16 0 -2
BITMAP
0040
007e
f040
97ff
9441
947a
95c0
9442
943e
9400
f448
0d49
094a
194a
3048
03ff
ENDCHAR
STARTCHAR ch-27
ENCODING 27
SWIDTH 1000 0
DWIDTH 16 0
BBX 16 16 0 -2
BITMAP
0020
0020
f7ff
9484
9484
97ff
9484
9484
95ce
95ae
f695
0495
0c84
0884
1884
0084
ENDCHAR
STARTCHAR ch-41
ENCODING 41
SWIDTH 1000 0
DWIDTH 16 0
BBX 16 16 0 -2
BITMAP
0088
0088
f7ff
9088
93fe
9124
9124
97ff
9124
9124
93fe
f020
0020
07ff
0020
0020
ENDCHAR
STARTCHAR ch-47
ENCODING 47
SWIDTH 1000 0
DWIDTH 16 0
BBX 16 16 0 -2
BITMAP
0020
03fe
7822
4fff
4822
4bfe
4820
4aaa
4aaa
4a22
7afa
0222
0272
06aa
0422
0c22
ENDCHAR
STARTCHAR ch-49
ENCODING 49
SWIDTH 1000 0
DWIDTH 16 0
BBX 16 16 0 -2
BITMAP
0000
07ff
f401
97ff
9400
95fe
9420
95fe
9522
95fe
f420
0fff
0a29
1a3d
32e5
0203
ENDCHAR
STARTCHAR ch-50
ENCODING 50
SWIDTH 1000 0
DWIDTH 16 0
BBX 16 16 0 -2
BITMAP
0100
011e
fff2
9112
97d2
945e
9452
97d2
9452
945e
97d2
f112
0ff2
0112
0112
0126
ENDCHAR
STARTCHAR ch-52
ENCODING 52
SWIDTH 1000 0
DWIDTH 16 0
BBX 16 16 0 -2
BITMAP
0110
0513
f5de
9510
95d1
9f0f
91f0
9220
97fe
9222
93fe
f222
03fe
0202
0602
0c0e
ENDCHAR
STARTCHAR ch-54
ENCODING 54
SWIDTH 1000 0
DWIDTH 16 0
BBX 16 16 0 -2
BITMAP
0482
0486
efdc
a490
a490
a79f
a492
a492
a792
a492
a492
efd2
0012
04a2
0cc2
1862
ENDCHAR
STARTCHAR ch-56
ENCODING 56
SWIDTH 1000 0
DWIDTH 16 0
BBX 16 16 0 -2
BITMAP
0100
0100
7bfe
4f54
4954
4954
4fff
4954
4954
4954
7954
07ff
0000
0154
0356
0653
ENDCHAR
STARTCHAR ch-66
ENCODING 66
SWIDTH 1000 0
DWIDTH 16 0
BBX 16 16 0 -2
BITMAP
0104
0088
07ff
f050
93fe
9252
939e
9202
93fe
9202
93fe
f004
07ff
0104
0084
001c
ENDCHAR
STARTCHAR ch-76
ENCODING 76
SWIDTH 1000 0
DWIDTH 16 0
BBX 16 16 0 -2
BITMAP
0104
0088
fbff
8a21
8a21
8bff
8a21
8a21
8bff
8800
f9fe
0102
01fe
0102
0102
01fe
ENDCHAR
STARTCHAR ch-78
ENCODING 78
SWIDTH 1000 0
DWIDTH 16 0
BBX 16 16 0 -2
BITMAP
0020
0020
07ff
7820
49fc
4800
4bfe
4a02
4afa
4800
49fc
7904
01fc
0088
0050
07ff
ENDCHAR
STARTCHAR ch-80
ENCODING 80
SWIDTH 1000 0
DWIDTH 16 0
BBX 16 16 0 -2
BITMAP
0000
3e7c
2244
2244
3e7c
0000
3ffc
0100
0100
7ffe
0000
3e7c
2244
2244
3e7c
0000
ENDCHAR
STARTCHAR ch-91
ENCODING 91
SWIDTH 1000 0
DWIDTH 16 0
BBX 16 16 0 -2
BITMAP
0020
0120
f13e
9120
9120
97ff
9202
92aa
9222
92fa
9222
f272
02aa
0222
0202
03fe
ENDCHAR
STARTCHAR ch-100
ENCODING 100
SWIDTH 1000 0
DWIDTH 16 0
BBX 16 16 0 -2
BITMAP
0088
0088
f7ff
9088
91dc
92aa
9489
9000
91fc
9000
93fe
f020
0124
0326
0623
0060
ENDCHAR
STARTCHAR ch-104
ENCODING 104
SWIDTH 1000 0
DWIDTH 16 0
BBX 16 16 0 -2
BITMAP
0000
7e7e
4242
4242
4242
7e7e
0100
ffff
0420
1818
e007
7e7e
4242
4242
4242
7e7e
ENDCHAR
STARTCHAR ch-106
ENCODING 106
SWIDTH 1000 0
DWIDTH 16 0
BBX 16 16 0 -2
BITMAP
00f8
0088
7888
48f8
4800
4bde
4a52
4a52
4bde
7820
07ff
00a8
01ac
0326
0623
0020
ENDCHAR
STARTCHAR ch-107
ENCODING 107
SWIDTH 1000 0
DWIDTH 16 0
BBX 16 16 0 -2
BITMAP
0040
0040
f7fe
9108
9090
9fff
9000
93fc
9204
93fc
9204
f3fc
0040
0522
0509
08f8
ENDCHAR
STARTCHAR ch-108
ENCODING 108
SWIDTH 1000 0
DWIDTH 16 0
BBX 16 16 0 -2
BITMAP
0108
0108
7bdf
4a94
4ca4
4800
4bfe
4820
4924
4924
7bae
02aa
0471
0020
07ff
0000
ENDCHAR
STARTCHAR ch-116
ENCODING 116
SWIDTH 1000 0
DWIDTH 16 0
BBX 16 16 0 -2
BITMAP
0020
03fe
f820
8904
8fff
8904
8800
8bfe
8a02
8bfe
fa02
03fe
0202
03fe
0104
0603
ENDCHAR
STARTCHAR ch-120
ENCODING 120
SWIDTH 1000 0
DWIDTH 16 0
BBX 16 16 0 -2
BITMAP
0200
027f
e388
ae3e
a222
aaa2
aabe
aaa2
aaa2
afbe
a222
e222
02be
0194
0036
0063
ENDCHAR
STARTCHAR ch-122
ENCODING 122
SWIDTH 1000 0
DWIDTH 16 0
BBX 16 16 0 -2
BITMAP
0103
011e
eff0
a450
a6d0
a29f
aff2
a112
a112
aff2
a112
e392
0352
0512
0912
0122
ENDCHAR
STARTCHAR ch-128
ENCODING 128
SWIDTH 1000 0
DWIDTH 16 0
BBX 16 16 0 -2
BITMAP
0020
0020
f7ff
9441
94a1
928a
94f9
9000
93fe
9292
f3fe
0000
07ff
0020
0020
00e0
ENDCHAR
STARTCHAR ch-134
ENCODING 134
SWIDTH 1000 0
DWIDTH 16 0
BBX 16 16 0 -2
BITMAP
0088
07ff
f088
9020
97ff
9000
91fc
9104
91fc
9000
f7ff
0401
04f9
0489
04f9
0407
ENDCHAR
STARTCHAR ch-135
ENCODING 135
SWIDTH 1000 0
DWIDTH 16 0
BBX 16 16 0 -2
BITMAP
0208
0208
efbe
a208
a208
a208
bfff
a514
a514
b5b6
f555
1555
2514
0924
0924
134c
ENDCHAR
STARTCHAR ch-138
ENCODING 138
SWIDTH 1000 0
DWIDTH 16 0
BBX 16 16 0 -2
BITMAP
0040
03fc
f204
93fc
9204
93fc
9204
97fe
9442
97fe
f442
07fe
0108
0fff
0208
0c08
ENDCHAR
STARTCHAR ch-143
ENCODING 143
SWIDTH 1000 0
DWIDTH 16 0
BBX 16 16 0 -2
BITMAP
0020
07ff
f020
97ff
9401
91fc
9124
91fc
9124
91fc
f000
07ff
0121
013e
02a0
0c7f
ENDCHAR
STARTCHAR ch-148
ENCODING 148
SWIDTH 1000 0
DWIDTH 16 0
BBX 16 16 0 -2
BITMAP
0020
07ff
f020
97ff
9401
91fc
9124
91fc
9124
91fc
f082
07ff
0121
013e
02a0
0c7f
ENDCHAR
STARTCHAR ch-160
ENCODING 160
SWIDTH 1000 0
DWIDTH 16 0
BBX 16 16 0 -2
BITMAP
0201
0cf5
e855
aa55
ae95
a935
a285
a445
aba5
a105
a7c5
e101
0921
0541
01e1
0f07
ENDCHAR
STARTCHAR ch-162
ENCODING 162
SWIDTH 1000 0
DWIDTH 16 0
BBX 16 16 0 -2
BITMAP
0100
7ffe
1108
1ff8
0100
ffff
9009
2424
dffb
0420
3ffc
0420
ffff
0848
f030
1e0f
ENDCHAR
STARTCHAR ch-165
ENCODING 165
SWIDTH 1000 0
DWIDTH 16 0
BBX 16 16 0 -2
BITMAP
0088
0088
f7ff
9088
90f8
9104
9775
9156
9154
9154
f375
0503
0000
0154
0356
0653
ENDCHAR
STARTCHAR ch-174
ENCODING 174
SWIDTH 1000 0
DWIDTH 16 0
BBX 16 16 0 -2
BITMAP
23ef
ca29
53ea
222a
4be9
fa09
1249
23eb
c628
0100
7ffe
4002
4ff2
4812
4ff2
4006
ENDCHAR
STARTCHAR ch-180
ENCODING 180
SWIDTH 1000 0
DWIDTH 16 0
BBX 16 16 0 -2
BITMAP
3e7c
2244
3e7c
0000
7fff
4000
5f10
4410
7fbf
5164
5f14
511c
5f08
511c
9f36
3163
ENDCHAR
STARTCHAR ch-182
ENCODING 182
SWIDTH 1000 0
DWIDTH 16 0
BBX 16 16 0 -2
BITMAP
0000
07df
f451
97df
9451
97df
9451
97df
928a
9451
f080
07ff
0104
03cc
0078
07cf
ENDCHAR
STARTCHAR ch-188
ENCODING 188
SWIDTH 1000 0
DWIDTH 16 0
BBX 16 16 0 -2
BITMAP
000e
07f8
f242
9124
97fe
9492
97fe
9000
97c2
945f
97c2
f452
07da
048a
07c2
0c4e
ENDCHAR
STARTCHAR ch-192
ENCODING 192
SWIDTH 1000 0
DWIDTH 16 0
BBX 16 16 0 -2
BITMAP
0208
027f
ef88
a23f
afa9
aabf
aaa9
afbf
aa92
aabd
af82
e27f
0f82
0222
0212
0206
ENDCHAR
STARTCHAR ch-193
ENCODING 193
SWIDTH 1000 0
DWIDTH 16 0
BBX 16 16 0 -2
BITMAP
07fe
0108
f1f8
9108
91f8
910e
97f8
9008
9fff
9492
979e
f492
079e
0492
1fbe
0082
ENDCHAR
STARTCHAR ch-194
ENCODING 194
SWIDTH 1000 0
DWIDTH 16 0
BBX 16 16 0 -2
BITMAP
7e7e
4242
7e7e
0000
ffff
0100
3ffc
2004
3ffc
2004
3ffc
1008
e007
7e7e
4242
7e7e
ENDCHAR
STARTCHAR ch-195
ENCODING 195
SWIDTH 1000 0
DWIDTH 16 0
BBX 16 16 0 -2
BITMAP
0212
0212
efa4
a03f
a564
a524
aaa4
a03f
a224
afa4
a224
e73f
06a4
0aa4
1224
023f
ENDCHAR
STARTCHAR ch-200
ENCODING 200
SWIDTH 1000 0
DWIDTH 16 0
BBX 16 16 0 -2
BITMAP
0090
0fff
f090
9108
97c8
911e
9fea
945a
996e
938a
f10a
0fd3
0000
0fff
0204
07fa
ENDCHAR
STARTCHAR ch-206
ENCODING 206
SWIDTH 1000 0
DWIDTH 16 0
BBX 16 16 0 -2
BITMAP
0022
0f14
e97f
a949
af49
a97f
a949
a949
af7f
a900
a93e
e922
0f3e
0422
0d22
18be
ENDCHAR
STARTCHAR ch-209
ENCODING 209
SWIDTH 1000 0
DWIDTH 16 0
BBX 16 16 0 -2
BITMAP
0ffe
0802
effe
a820
abae
a820
abfe
aa92
abff
a941
effd
1a45
13fd
3053
60fa
078e
ENDCHAR
STARTCHAR ch-211
ENCODING 211
SWIDTH 1000 0
DWIDTH 16 0
BBX 16 16 0 -2
BITMAP
0200
0fbf
e209
af89
a211
afa3
a13c
a120
bfff
a952
e842
0bfa
0952
0a4a
0842
0ffe
ENDCHAR
STARTCHAR ch-215
ENCODING 215
SWIDTH 1000 0
DWIDTH 16 0
BBX 16 16 0 -2
BITMAP
0000
7ffe
4002
4002
4002
4002
4002
4002
4002
4002
4002
4002
4002
4002
7ffe
0000
ENDCHAR
STARTCHAR ch-216
ENCODING 216
SWIDTH 1000 0
DWIDTH 16 0
BBX 16 16 0 -2
BITMAP
0000
7ffe
4002
4002
47e2
4422
4422
47e2
4402
4402
4412
4632
43e2
4002
4002
400e
ENDCHAR
STARTCHAR ch-218
ENCODING 218
SWIDTH 1000 0
DWIDTH 16 0
BBX 16 16 0 -2
BITMAP
0000
7ffe
4002
4102
4102
4102
4382
4282
42c2
4642
4462
4c32
581a
4002
7ffe
0000
ENDCHAR
STARTCHAR ch-219
ENCODING 219
SWIDTH 1000 0
DWIDTH 16 0
BBX 16 16 0 -2
BITMAP
0000
0000
7ffe
4442
4442
4442
4442
4c42
4862
583e
7002
4002
4002
7ffe
0000
0000
ENDCHAR
STARTCHAR ch-222
ENCODING 222
SWIDTH 1000 0
DWIDTH 16 0
BBX 16 16 0 -2
BITMAP
0000
7ffe
4002
4002
4002
47e2
4422
4422
4422
4422
47e2
4002
4002
4002
7ffe
0000
ENDCHAR
STARTCHAR ch-224
ENCODING 224
SWIDTH 1000 0
DWIDTH 16 0
BBX 16 16 0 -2
BITMAP
0000
7ffe
4002
4102
4102
5ffa
4102
4382
42c2
4662
4c32
581a
4002
4002
7ffe
0000
ENDCHAR
STARTCHAR ch-227
ENCODING 227
SWIDTH 1000 0
DWIDTH 16 0
BBX 16 16 0 -2
BITMAP
0000
7ffe
4002
4022
4022
5ffa
4022
4422
4622
4222
4022
4022
40e2
4002
7ffe
0000
ENDCHAR
STARTCHAR ch-238
ENCODING 238
SWIDTH 1000 0
DWIDTH 16 0
BBX 16 16 0 -2
BITMAP
0000
7ffe
4002
4282
4292
44b2
4ce2
5482
4482
4482
448a
448a
447a
4002
7ffe
0000
ENDCHAR
STARTCHAR ch-240
ENCODING 240
SWIDTH 1000 0
DWIDTH 16 0
BBX 16 16 0 -2
BITMAP
0000
7ffe
4002
4102
4102
5ffa
4542
4562
4d22
4932
591a
4102
4102
4002
7ffe
0000
ENDCHAR
STARTCHAR ch-242
ENCODING 242
SWIDTH 1000 0
DWIDTH 16 0
BBX 16 16 0 -2
BITMAP
0000
7ffe
4002
4422
4422
5ffa
4422
4422
4422
5ffa
4422
4c22
5822
4002
7ffe
0000
ENDCHAR
STARTCHAR ch-243
ENCODING 243
SWIDTH 1000 0
DWIDTH 16 0
BBX 16 16 0 -2
BITMAP
0000
7ffe
4002
4302
598a
4c9a
4412
4032
4362
40c2
4162
4732
5c12
4002
7ffe
0000
ENDCHAR
STARTCHAR ch-249
ENCODING 249
SWIDTH 1000 0
DWIDTH 16 0
BBX 16 16 0 -2
BITMAP
0000
7ffe
4102
4282
4462
581a
47e2
4002
4ff2
4112
4112
4172
4102
4002
7ffe
0000
ENDCHAR
STARTCHAR ch-250
ENCODING 250
SWIDTH 1000 0
DWIDTH 16 0
BBX 16 16 0 -2
BITMAP
0000
7ffe
4002
4102
4102
5ffa
4102
4102
47e2
4422
4422
4422
47e2
4002
7ffe
0000
ENDCHAR
STARTCHAR ch-253
ENCODING 253
SWIDTH 1000 0
DWIDTH 16 0
BBX 16 16 0 -2
BITMAP
0000
7ffe
4002
4ff2
4102
4102
4102
4ff2
4102
4122
4112
4112
5ffa
4002
7ffe
0000
ENDCHAR
STARTCHAR ch-255
ENCODING 255
SWIDTH 1000 0
DWIDTH 16 0
BBX 16 16 0 -2
BITMAP
0000
7ffe
4002
4102
5ffa
4202
47f2
4c12
57f2
4412
47f2
4412
4432
4002
7ffe
0000
ENDCHAR
STARTCHAR ch-256
ENCODING 256
SWIDTH 1000 0
DWIDTH 16 0
BBX 16 16 0 -2
BITMAP
0000
7ffe
4442
4842
517a
4102
5ffa
4202
43f2
4212
4612
4c32
58e2
4002
7ffe
0000
ENDCHAR
STARTCHAR ch-259
ENCODING 259
SWIDTH 1000 0
DWIDTH 16 0
BBX 16 16 0 -2
BITMAP
0000
7ffe
4042
4122
5ffa
4102
4ff2
4912
4ff2
4912
4ff2
4912
4932
4002
7ffe
0000
ENDCHAR
STARTCHAR ch-260
ENCODING 260
SWIDTH 1000 0
DWIDTH 16 0
BBX 16 16 0 -2
BITMAP
0000
7ffe
4002
4ff2
4102
4fe2
4222
5ffa
4002
4ff2
4812
4812
4ff2
4002
7ffe
0000
ENDCHAR
STARTCHAR ch-264
ENCODING 264
SWIDTH 1000 0
DWIDTH 16 0
BBX 16 16 0 -2
BITMAP
0000
7ffe
4912
4522
4ff2
4242
5ffa
4422
4ff2
5a5a
42c2
4212
41f2
4002
7ffe
0000
ENDCHAR
STARTCHAR ch-265
ENCODING 265
SWIDTH 1000 0
DWIDTH 16 0
BBX 16 16 0 -2
BITMAP
0000
7ffe
4002
4102
4ff2
4102
5ffa
4422
4242
4ff2
4102
5ffa
4102
4002
7ffe
0000
ENDCHAR
STARTCHAR ch-267
ENCODING 267
SWIDTH 1000 0
DWIDTH 16 0
BBX 16 16 0 -2
BITMAP
0000
7ffe
4052
404a
5ffa
4042
4f4a
494a
4f52
4022
476a
5cba
4112
4002
7ffe
0000
ENDCHAR
STARTCHAR ch-269
ENCODING 269
SWIDTH 1000 0
DWIDTH 16 0
BBX 16 16 0 -2
BITMAP
7ffe
4102
4fe2
4222
5ffa
4002
47e2
4422
47e2
4042
4ff2
4442
5ffa
4042
4002
7ffe
ENDCHAR
STARTCHAR ch-271
ENCODING 271
SWIDTH 1000 0
DWIDTH 16 0
BBX 16 16 0 -2
BITMAP
0000
7ffe
4912
4522
5ffa
4242
5ffa
4422
4fd2
704e
47c2
4412
47f2
4002
7ffe
0000
ENDCHAR
STARTCHAR ch-274
ENCODING 274
SWIDTH 1000 0
DWIDTH 16 0
BBX 16 16 0 -2
BITMAP
0000
7ffe
4102
4ff2
4102
5ffa
4002
4ff2
4812
4ff2
434a
4532
591a
4102
7ffe
0000
ENDCHAR
STARTCHAR ch-275
ENCODING 275
SWIDTH 1000 0
DWIDTH 16 0
BBX 16 16 0 -2
BITMAP
7ffe
4002
47e2
4422
47e2
4002
4ff2
4812
4ff2
4812
4ff2
4812
4ff2
4422
4812
7ffe
ENDCHAR
STARTCHAR ch-278
ENCODING 278
SWIDTH 1000 0
DWIDTH 16 0
BBX 16 16 0 -2
BITMAP
7ffe
4002
4ff2
4812
4ff2
4102
5ffa
4812
4bd2
4a52
4a52
4bd2
4812
4ff2
4002
7ffe
ENDCHAR
STARTCHAR ch-280
ENCODING 280
SWIDTH 1000 0
DWIDTH 16 0
BBX 16 16 0 -2
BITMAP
7ffe
4102
5ffa
4102
4ff2
4912
4ff2
4912
4ff2
4122
4fd2
4022
5ffa
4422
4262
7ffe
ENDCHAR
STARTCHAR ch-284
ENCODING 284
SWIDTH 1000 0
DWIDTH 16 0
BBX 16 16 0 -2
BITMAP
7ffe
4002
4ff2
4a92
4ff2
4002
5ffa
4002
47e2
4422
47ea
4292
5c62
471a
4002
7ffe
ENDCHAR
STARTCHAR ch-287
ENCODING 287
SWIDTH 1000 0
DWIDTH 16 0
BBX 16 16 0 -2
BITMAP
0100
0100
0100
0100
0100
0100
7ffe
0100
0100
0100
0100
0100
0100
0100
ffff
0000
ENDCHAR
STARTCHAR ch-294
ENCODING 294
SWIDTH 1000 0
DWIDTH 16 0
BBX 16 16 0 -2
BITMAP
2000
21e0
2020
2020
f820
2020
2020
2020
2070
2050
3850
e0d8
0088
018c
0306
0603
ENDCHAR
STARTCHAR ch-295
ENCODING 295
SWIDTH 1000 0
DWIDTH 16 0
BBX 16 16 0 -2
BITMAP
0000
3ffe
2000
2040
2040
2040
2040
2ffe
2040
2040
2040
6040
4040
c040
1fff
0000
ENDCHAR
STARTCHAR ch-296
ENCODING 296
SWIDTH 1000 0
DWIDTH 16 0
BBX 16 16 0 -2
BITMAP
0200
0200
0200
ffff
0400
1420
1820
1020
33fe
5020
9020
1020
1020
1020
17ff
1000
ENDCHAR
STARTCHAR ch-301
ENCODING 301
SWIDTH 1000 0
DWIDTH 16 0
BBX 16 16 0 -2
BITMAP
0100
0100
3ffc
0100
0100
0100
7ffe
0000
0100
0100
3ffc
0100
0100
0100
ffff
0000
ENDCHAR
STARTCHAR ch-304
ENCODING 304
SWIDTH 1000 0
DWIDTH 16 0
BBX 16 16 0 -2
BITMAP
0020
2120
2120
2126
213a
f962
21a2
2722
2122
2122
2126
3920
6100
c101
0183
00fe
ENDCHAR
STARTCHAR ch-311
ENCODING 311
SWIDTH 1000 0
DWIDTH 16 0
BBX 16 16 0 -2
BITMAP
2000
23ff
2020
2020
f820
2038
202c
2026
2020
2020
3820
e020
0020
0020
0020
0020
ENDCHAR
STARTCHAR ch-312
ENCODING 312
SWIDTH 1000 0
DWIDTH 16 0
BBX 16 16 0 -2
BITMAP
2010
2010
2010
2010
f810
2111
2111
2111
2111
2111
3911
e111
0111
0111
01ff
0000
ENDCHAR
STARTCHAR ch-315
ENCODING 315
SWIDTH 1000 0
DWIDTH 16 0
BBX 16 16 0 -2
BITMAP
2006
201c
21f0
2100
f900
21ff
2108
2108
2108
2108
3908
e308
0208
0608
0c08
0008
ENDCHAR
STARTCHAR ch-320
ENCODING 320
SWIDTH 1000 0
DWIDTH 16 0
BBX 16 16 0 -2
BITMAP
2020
2020
2020
2220
fa20
2220
223e
2220
2220
2220
3a20
e220
0220
0220
0fff
0000
ENDCHAR
STARTCHAR ch-322
ENCODING 322
SWIDTH 1000 0
DWIDTH 16 0
BBX 16 16 0 -2
BITMAP
1000
11ff
1100
1100
fd00
11fe
1142
1146
1164
112c
1d38
7310
c238
066c
0cc6
0183
ENDCHAR
STARTCHAR ch-327
ENCODING 327
SWIDTH 1000 0
DWIDTH 16 0
BBX 16 16 0 -2
BITMAP
0100
2100
2100
23fe
fa02
2602
21e2
2002
2002
2032
38e2
e382
0006
0004
000c
0038
ENDCHAR
STARTCHAR ch-330
ENCODING 330
SWIDTH 1000 0
DWIDTH 16 0
BBX 16 16 0 -2
BITMAP
1020
1020
1020
13ff
fc40
1040
1040
107e
1042
1042
1c42
70c2
c086
0184
0304
061c
ENDCHAR
STARTCHAR ch-334
ENCODING 334
SWIDTH 1000 0
DWIDTH 16 0
BBX 16 16 0 -2
BITMAP
2080
2080
2080
20fe
f982
2126
2324
2020
2020
2070
3850
e0d8
0088
018c
0306
0603
ENDCHAR
STARTCHAR ch-335
ENCODING 335
SWIDTH 1000 0
DWIDTH 16 0
BBX 16 16 0 -2
BITMAP
2000
23ff
2010
2010
f830
2020
2068
20ec
21a6
2323
3820
e020
0020
0020
0020
0020
ENDCHAR
STARTCHAR ch-336
ENCODING 336
SWIDTH 1000 0
DWIDTH 16 0
BBX 16 16 0 -2
BITMAP
0100
0100
1110
1110
1110
3938
2d6c
6546
c103
0100
3ffc
0100
0100
0100
ffff
0000
ENDCHAR
STARTCHAR ch-337
ENCODING 337
SWIDTH 1000 0
DWIDTH 16 0
BBX 16 16 0 -2
BITMAP
1020
1020
1020
13ff
fc00
1000
10f8
1088
1088
1088
1c88
7088
c188
0109
0309
0607
ENDCHAR
STARTCHAR ch-353
ENCODING 353
SWIDTH 1000 0
DWIDTH 16 0
BBX 16 16 0 -2
BITMAP
2020
2020
2020
23ff
fa21
2222
2220
23fe
2282
22c6
3a6c
e238
0610
0438
0c6c
01c7
ENDCHAR
STARTCHAR ch-356
ENCODING 356
SWIDTH 1000 0
DWIDTH 16 0
BBX 16 16 0 -2
BITMAP
2020
2020
2020
23ff
fa21
2221
2221
23ff
2221
2221
2221
3bff
e020
0020
0020
0020
ENDCHAR
STARTCHAR ch-358
ENCODING 358
SWIDTH 1000 0
DWIDTH 16 0
BBX 16 16 0 -2
BITMAP
2000
21fc
2104
2104
f904
2104
21fc
2104
2104
2104
3904
e1fc
0000
0000
07ff
0000
ENDCHAR
STARTCHAR ch-361
ENCODING 361
SWIDTH 1000 0
DWIDTH 16 0
BBX 16 16 0 -2
BITMAP
2084
2084
2084
23ff
f884
2084
2084
2084
2084
20fc
3884
e084
0084
0084
0084
00fc
ENDCHAR
STARTCHAR ch-362
ENCODING 362
SWIDTH 1000 0
DWIDTH 16 0
BBX 16 16 0 -2
BITMAP
2000
23fe
2020
2222
fb26
2124
2124
2020
27ff
2020
3820
6020
c020
0020
0020
0020
ENDCHAR
STARTCHAR ch-383
ENCODING 383
SWIDTH 1000 0
DWIDTH 16 0
BBX 16 16 0 -2
BITMAP
2084
2084
2184
2104
fb7f
2304
2504
2924
2134
2114
3904
e104
0104
0104
0104
011c
ENDCHAR
STARTCHAR ch-386
ENCODING 386
SWIDTH 1000 0
DWIDTH 16 0
BBX 16 16 0 -2
BITMAP
0018
01f0
3f00
0100
7ffe
1108
1108
ffff
1108
1108
1108
7ffe
0100
0100
ffff
0000
ENDCHAR
STARTCHAR ch-392
ENCODING 392
SWIDTH 1000 0
DWIDTH 16 0
BBX 16 16 0 -2
BITMAP
0824
0826
1822
17ff
3020
5030
9010
1019
100d
1107
0100
3ffc
0100
0100
ffff
0000
ENDCHAR
STARTCHAR ch-393
ENCODING 393
SWIDTH 1000 0
DWIDTH 16 0
BBX 16 16 0 -2
BITMAP
2100
2100
21fe
2302
fa02
23f2
2612
2012
2012
21f6
3904
e11c
0100
0101
0183
00fe
ENDCHAR
STARTCHAR ch-395
ENCODING 395
SWIDTH 1000 0
DWIDTH 16 0
BBX 16 16 0 -2
BITMAP
0002
ffa2
2222
2222
2222
ffa2
2222
2202
6202
c00e
0100
3ffc
0100
0100
ffff
0000
ENDCHAR
STARTCHAR ch-403
ENCODING 403
SWIDTH 1000 0
DWIDTH 16 0
BBX 16 16 0 -2
BITMAP
2020
2020
2020
27ff
f840
20c0
2188
20d8
2030
2064
38cc
e398
0030
006c
01c6
0703
ENDCHAR
STARTCHAR ch-416
ENCODING 416
SWIDTH 1000 0
DWIDTH 16 0
BBX 16 16 0 -2
BITMAP
2000
21fc
2104
2104
f9fc
2104
2104
21fc
2111
2113
3916
e118
0108
010c
01e6
0703
ENDCHAR
STARTCHAR ch-418
ENCODING 418
SWIDTH 1000 0
DWIDTH 16 0
BBX 16 16 0 -2
BITMAP
0006
203c
23e0
2200
2200
fbff
2200
2200
22fe
2282
2282
3a82
e682
0482
0c82
00fe
ENDCHAR
STARTCHAR ch-419
ENCODING 419
SWIDTH 1000 0
DWIDTH 16 0
BBX 16 16 0 -2
BITMAP
2000
23fe
2000
2000
f9fc
2104
2104
21fc
2104
2104
3904
61fc
c000
0000
07ff
0000
ENDCHAR
STARTCHAR ch-420
ENCODING 420
SWIDTH 1000 0
DWIDTH 16 0
BBX 16 16 0 -2
BITMAP
2000
27ff
2080
2084
f984
213e
23e3
2000
2020
2020
3bfe
e020
0020
0020
07ff
0000
ENDCHAR
STARTCHAR ch-426
ENCODING 426
SWIDTH 1000 0
DWIDTH 16 0
BBX 16 16 0 -2
BITMAP
2104
218c
2088
23fe
f888
2088
2088
2088
27ff
2088
3888
e088
0188
0108
0308
0608
ENDCHAR
STARTCHAR ch-432
ENCODING 432
SWIDTH 1000 0
DWIDTH 16 0
BBX 16 16 0 -2
BITMAP
2020
2020
203e
2020
f820
23ff
2000
2000
23ff
2020
3820
e03c
0026
0020
0020
0020
ENDCHAR
STARTCHAR ch-435
ENCODING 435
SWIDTH 1000 0
DWIDTH 16 0
BBX 16 16 0 -2
BITMAP
2080
20be
2100
2200
f880
20bf
2104
2304
2504
2104
2104
3904
e104
0104
0104
011c
ENDCHAR
STARTCHAR ch-448
ENCODING 448
SWIDTH 1000 0
DWIDTH 16 0
BBX 16 16 0 -2
BITMAP
0018
00f0
3f80
0100
7ffe
0100
0924
7938
0920
1922
691e
0100
7ffe
0100
ffff
0000
ENDCHAR
STARTCHAR ch-451
ENCODING 451
SWIDTH 1000 0
DWIDTH 16 0
BBX 16 16 0 -2
BITMAP
2040
2044
20c4
209e
fbf3
2080
2080
21fe
2320
2020
3bff
e050
00d8
008c
0186
0303
ENDCHAR
STARTCHAR ch-454
ENCODING 454
SWIDTH 1000 0
DWIDTH 16 0
BBX 16 16 0 -2
BITMAP
2040
20fe
2184
2708
f9ff
2111
2111
21ff
2111
2111
39ff
e101
0101
0301
0201
0607
ENDCHAR
STARTCHAR ch-459
ENCODING 459
SWIDTH 1000 0
DWIDTH 16 0
BBX 16 16 0 -2
BITMAP
2000
23fe
2222
2222
fbfe
2222
2222
23fe
2020
2020
3bfe
e020
0020
0020
07ff
0000
ENDCHAR
STARTCHAR ch-462
ENCODING 462
SWIDTH 1000 0
DWIDTH 16 0
BBX 16 16 0 -2
BITMAP
2024
2026
2022
27ff
fc20
2420
27a2
24b2
2496
2494
3c9c
e488
0c9c
09b5
1867
30c2
ENDCHAR
STARTCHAR ch-466
ENCODING 466
SWIDTH 1000 0
DWIDTH 16 0
BBX 16 16 0 -2
BITMAP
2006
203c
23e1
2043
fa66
2324
2100
2004
23ff
2004
3984
e0c4
0044
0004
0004
001c
ENDCHAR
STARTCHAR ch-467
ENCODING 467
SWIDTH 1000 0
DWIDTH 16 0
BBX 16 16 0 -2
BITMAP
2020
2062
20d6
238c
f858
2030
20e0
2384
2004
23ff
3804
e184
00c4
0044
0004
001c
ENDCHAR
STARTCHAR ch-468
ENCODING 468
SWIDTH 1000 0
DWIDTH 16 0
BBX 16 16 0 -2
BITMAP
2024
2022
27ff
2020
f820
23fe
2222
2222
23fe
2222
3a22
e3fe
0222
0222
0222
0226
ENDCHAR
STARTCHAR ch-470
ENCODING 470
SWIDTH 1000 0
DWIDTH 16 0
BBX 16 16 0 -2
BITMAP
2088
2088
27ff
2088
f888
2050
2050
20d3
2096
219c
3b90
e690
0090
0091
0093
008e
ENDCHAR
STARTCHAR ch-476
ENCODING 476
SWIDTH 1000 0
DWIDTH 16 0
BBX 16 16 0 -2
BITMAP
0810
0810
feff
2854
2c54
6ad6
4892
c993
0810
0100
0100
3ffc
0100
0100
ffff
0000
ENDCHAR
STARTCHAR ch-479
ENCODING 479
SWIDTH 1000 0
DWIDTH 16 0
BBX 16 16 0 -2
BITMAP
2028
2024
2024
27ff
f820
2020
27a2
24b2
2496
2494
279c
3808
6399
ce2d
00c7
0302
ENDCHAR
STARTCHAR ch-480
ENCODING 480
SWIDTH 1000 0
DWIDTH 16 0
BBX 16 16 0 -2
BITMAP
0020
2040
21fc
2104
2104
f9fc
2100
21fc
2104
2104
39fc
6020
c7ff
0020
0020
0020
ENDCHAR
STARTCHAR ch-483
ENCODING 483
SWIDTH 1000 0
DWIDTH 16 0
BBX 16 16 0 -2
BITMAP
2020
2020
23fe
2000
f904
2104
238e
26db
2000
3820
e7ff
0020
0020
0020
0020
0020
ENDCHAR
STARTCHAR ch-500
ENCODING 500
SWIDTH 1000 0
DWIDTH 16 0
BBX 16 16 0 -2
BITMAP
0020
2020
27ff
2020
20fc
f884
2284
22fc
2284
2284
22fc
3a84
e284
02fc
0200
03ff
ENDCHAR
STARTCHAR ch-503
ENCODING 503
SWIDTH 1000 0
DWIDTH 16 0
BBX 16 16 0 -2
BITMAP
1020
1020
7e20
1020
10fc
ff24
4224
24a4
ff64
1024
1034
7e54
1054
10c5
1185
1303
ENDCHAR
STARTCHAR ch-505
ENCODING 505
SWIDTH 1000 0
DWIDTH 16 0
BBX 16 16 0 -2
BITMAP
2020
2020
23fe
2104
f98c
2088
2088
27ff
2000
2000
39fc
e104
0104
0104
0104
01fc
ENDCHAR
STARTCHAR ch-506
ENCODING 506
SWIDTH 1000 0
DWIDTH 16 0
BBX 16 16 0 -2
BITMAP
0810
0810
7ffe
0810
0ff0
0810
0ff0
0810
ffff
0810
1108
2ff4
c103
0100
ffff
0000
ENDCHAR
STARTCHAR ch-508
ENCODING 508
SWIDTH 1000 0
DWIDTH 16 0
BBX 16 16 0 -2
BITMAP
2020
2020
23fe
2050
f8d8
218c
2000
27ff
2004
21e4
3924
6124
c124
01e4
0004
001c
ENDCHAR
ENDFONT
